<svg xmlns="http://www.w3.org/2000/svg" width="1000" height="1000" viewBox="0 0 1000 1000">
  <title>camping-14 — Osmic pin</title>
  <style>
    :root {
      --pin-color: #3f6212;
      --inner-color: #FFFFFF;
      --icon-color: #3f6212;
    }
    #pin-shape { fill: #3f6212; }
    #inner-background { fill: #FFFFFF; }
    /* recolor Osmic visually without touching original coordinates */
    #osmic-icon path, #osmic-icon circle, #osmic-icon ellipse, #osmic-icon polygon,
    #osmic-icon polyline, #osmic-icon line {
      fill: #3f6212 !important;
      stroke: none !important;
    }
    #osmic-icon rect[style*="visibility:hidden"],
    #osmic-icon rect[style*="fill:none"],
    #osmic-icon rect#canvas {
      fill: none !important;
      stroke: none !important;
      visibility: hidden !important;
    }
  </style>
  <path id="pin-shape" d="M500 34
C304 34 148 188 148 384
C148 551 239 653 334 767
L475 944
C489 962 511 962 525 944
L666 767
C761 653 852 551 852 384
C852 188 696 34 500 34Z"/>
  <circle id="inner-background" cx="500" cy="380" r="261"/>
  <g id="osmic-icon" transform="translate(360 240) scale(20)">
    <defs
     id="defs6" />
  <rect
     width="14"
     height="14"
     x="0"
     y="0"
     id="canvas"
     style="fill:none;stroke:none;visibility:hidden" />
  <path
     d="M 14,14 8.000001,2.9999992 9.000001,0 l -1,0 -1,1.9999995 L 6,0 5,0 6,2.9999992 0,14 z m -6.999999,-7.0000008 3,6.0000018 -6.000001,0 z"
     id="camping"
     style="fill:#000000;fill-opacity:1;stroke:none" />
  </g>
</svg>
